<svg id="Layer_1" data-name="Layer 1" xmlns="http://www.w3.org/2000/svg" viewBox="0 0 590.72 708.35"><defs><style>.cls-1,.cls-3,.cls-6{fill:#464655;}.cls-1,.cls-12,.cls-13,.cls-14,.cls-15,.cls-18,.cls-19,.cls-2,.cls-22,.cls-4,.cls-5{stroke:#464655;}.cls-1,.cls-10,.cls-11,.cls-12,.cls-13,.cls-14,.cls-15,.cls-18,.cls-19,.cls-2,.cls-22,.cls-4,.cls-5,.cls-6,.cls-9{stroke-miterlimit:10;}.cls-1,.cls-12,.cls-13,.cls-14,.cls-19,.cls-22{stroke-width:0.5px;}.cls-2{fill:#95989a;}.cls-4,.cls-8{fill:#1c55a5;}.cls-5,.cls-7{fill:#fff;}.cls-10,.cls-11,.cls-6,.cls-9{stroke:#95989a;}.cls-12,.cls-9{fill:#42a98b;}.cls-10,.cls-14,.cls-20{fill:#ef4347;}.cls-10{fill-rule:evenodd;}.cls-11,.cls-13,.cls-23{fill:#f89621;}.cls-15,.cls-18,.cls-24{fill:none;}.cls-15,.cls-18{stroke-width:2px;}.cls-15{stroke-dasharray:5.08 5.08;}.cls-16{fill:#2fade3;}.cls-17{fill:#f5834a;}.cls-19{fill:#f8b4be;}.cls-21{fill:#6fbf58;}.cls-22{fill:#f6d4ad;}.cls-24{stroke:#1c55a5;stroke-linecap:round;stroke-linejoin:round;stroke-width:10px;}</style></defs><rect class="cls-1" x="302.11" y="153.54" width="15.71" height="87.56"/><path class="cls-2" d="M177.48,252.81a147.48,147.48,0,0,0,272.71,0Z" transform="translate(-3.63 -11.71)"/><circle class="cls-1" cx="309.97" cy="140.72" r="15.61"/><rect class="cls-3" x="452" y="101.53" width="7.73" height="7.73" rx="2.23"/><path class="cls-4" d="M466.94,173.56H452.05c-2.23,0-4.1-2-4.33-4.64l-4.1-47.13c-.26-3.05,1.75-5.7,4.32-5.7H471c2.58,0,4.59,2.65,4.33,5.7l-4.1,47.13C471,171.56,469.17,173.56,466.94,173.56Z" transform="translate(-3.63 -11.71)"/><rect class="cls-1" x="310" y="161.86" width="161.28" height="8.46" rx="2.44"/><rect class="cls-4" x="159.08" y="314.61" width="302.25" height="393.23" rx="11.58"/><rect class="cls-5" x="198.46" y="490.24" width="223.5" height="153.12" rx="11.58"/><rect class="cls-6" x="223.61" y="351.34" width="170.4" height="66.47" rx="16.86"/><path class="cls-7" d="M238.77,408.37v-22.8h5.6q4.49,0,6.63,1.71t2.14,5.3a6.54,6.54,0,0,1-2.16,5.2,8.77,8.77,0,0,1-6,1.88h-1.34v8.71Zm4.9-12.51h.7a4.22,4.22,0,0,0,2.9-.82,3.45,3.45,0,0,0,.9-2.65,3.05,3.05,0,0,0-.9-2.45,4.4,4.4,0,0,0-2.9-.77h-.7Z" transform="translate(-3.63 -11.71)"/><path class="cls-7" d="M270.29,408.37H266l.06-2.2a5.88,5.88,0,0,1-2.17,2.13,6.53,6.53,0,0,1-3.09.67,6,6,0,0,1-4.9-2.25,10.66,10.66,0,0,1,0-12,6.32,6.32,0,0,1,5.08-2.15,5.69,5.69,0,0,1,3,.76,6.15,6.15,0,0,1,2.16,2.27v-2.52h4.21Zm-4.05-7.66a4.83,4.83,0,0,0-1-3.26,3.5,3.5,0,0,0-2.79-1.2,3.59,3.59,0,0,0-2.85,1.19,4.82,4.82,0,0,0-1,3.27,4.69,4.69,0,0,0,1,3.22,4.07,4.07,0,0,0,5.67,0A4.69,4.69,0,0,0,266.24,400.71Z" transform="translate(-3.63 -11.71)"/><path class="cls-7" d="M285.72,407.92a7.32,7.32,0,0,1-1.9.8,8.82,8.82,0,0,1-2.18.25,7.93,7.93,0,0,1-5.89-2.29,8.1,8.1,0,0,1-2.27-6,7.89,7.89,0,0,1,2.29-5.87,8.05,8.05,0,0,1,5.93-2.26,9.06,9.06,0,0,1,2.18.23,7.28,7.28,0,0,1,1.84.73l0,4.46a4.93,4.93,0,0,0-3.57-1.5,4,4,0,0,0-3,1.15,4.11,4.11,0,0,0-1.12,3,3.93,3.93,0,0,0,4.23,4.22,4.17,4.17,0,0,0,3.45-1.6Z" transform="translate(-3.63 -11.71)"/><path class="cls-7" d="M289.06,384.23h4.44v15.62l5.67-6.76h5.33l-6.16,6.76,6.76,8.52h-5.48l-6.12-8.1v8.1h-4.44Z" transform="translate(-3.63 -11.71)"/><path class="cls-7" d="M322,401.83H310.52a4,4,0,0,0,1.2,2.46,3.7,3.7,0,0,0,2.54.82,4.27,4.27,0,0,0,2.09-.47,3.9,3.9,0,0,0,1.48-1.41l3.58,1.79a8.27,8.27,0,0,1-3,3,8.68,8.68,0,0,1-4.22,1,7.83,7.83,0,0,1-5.88-2.21,9,9,0,0,1,.11-11.86,7.74,7.74,0,0,1,5.8-2.32,7.66,7.66,0,0,1,5.76,2.17,8.13,8.13,0,0,1,2.12,5.92c0,.14,0,.29,0,.45S322,401.51,322,401.83Zm-4.39-2.68a3.35,3.35,0,0,0-1.05-2.19,3.55,3.55,0,0,0-2.36-.74,3.63,3.63,0,0,0-2.39.74,3.48,3.48,0,0,0-1.15,2.19Z" transform="translate(-3.63 -11.71)"/><path class="cls-7" d="M325.91,408.37V396.56h-2.14v-3.47h2.14V388h4.43v5.08h2.14v3.47h-2.14v11.81Z" transform="translate(-3.63 -11.71)"/><path class="cls-7" d="M333.63,408.37l3.47-22.8h5.11L346.6,399a10.07,10.07,0,0,1,.3,1.23c.11.54.22,1.16.31,1.86.08-.71.17-1.34.28-1.9a8.89,8.89,0,0,1,.29-1.22l4.47-13.39h5l3.49,22.8h-4.62l-1.67-13.75c-.12-1-.21-1.79-.25-2.31s-.06-1-.06-1.45c0-.23,0-.41,0-.53a2.88,2.88,0,0,1,0-.32c-.16.89-.3,1.66-.44,2.31a12,12,0,0,1-.39,1.47l-4.82,14.58h-2.74l-4.75-14.58c0-.13-.14-.51-.27-1.12s-.34-1.5-.59-2.68v.67a32.3,32.3,0,0,1-.28,3.89v.07l-1.66,13.75Z" transform="translate(-3.63 -11.71)"/><path class="cls-7" d="M363.33,386.82a2.59,2.59,0,0,1,2.58-2.59,2.54,2.54,0,0,1,1.85.76,2.47,2.47,0,0,1,.77,1.83,2.5,2.5,0,0,1-.77,1.83,2.55,2.55,0,0,1-1.85.77,2.45,2.45,0,0,1-1.82-.78A2.52,2.52,0,0,1,363.33,386.82Zm.38,21.55V393.09h4.43v15.28Z" transform="translate(-3.63 -11.71)"/><path class="cls-7" d="M372.81,408.37V384.23h4.42v24.14Z" transform="translate(-3.63 -11.71)"/><path class="cls-7" d="M381.9,408.37V384.23h4.42v24.14Z" transform="translate(-3.63 -11.71)"/><circle class="cls-3" cx="313.84" cy="578.4" r="28.69" transform="matrix(0.84, -0.54, 0.54, 0.84, -267.18, 251)"/><path class="cls-7" d="M298.33,568.72a5.8,5.8,0,0,1-.16,1.43,3.24,3.24,0,0,1-.47,1.1,2.26,2.26,0,0,1-.79.72,2.54,2.54,0,0,1-2.11,0,1.92,1.92,0,0,1-.77-.63,3.13,3.13,0,0,1-.48-1.09,6.05,6.05,0,0,1-.18-1.57,6.32,6.32,0,0,1,.16-1.43,3.52,3.52,0,0,1,.48-1.11,2.18,2.18,0,0,1,.79-.72,2.26,2.26,0,0,1,1.1-.25,2.33,2.33,0,0,1,1,.21,1.94,1.94,0,0,1,.77.63,3.11,3.11,0,0,1,.49,1.1A6.5,6.5,0,0,1,298.33,568.72Zm-4,0V569c0,.11,0,.21,0,.31l2.89-2.13a2.39,2.39,0,0,0-.2-.49,1.53,1.53,0,0,0-.29-.38,1.23,1.23,0,0,0-.38-.24,1.21,1.21,0,0,0-.48-.09,1.28,1.28,0,0,0-.64.17,1.44,1.44,0,0,0-.5.51,2.91,2.91,0,0,0-.31.85A5.75,5.75,0,0,0,294.29,568.69Zm3.12.06c0-.12,0-.24,0-.35l0-.35-2.89,2.15a3.26,3.26,0,0,0,.2.5,1.53,1.53,0,0,0,.29.4,1.24,1.24,0,0,0,.39.25,1.26,1.26,0,0,0,.49.09,1.22,1.22,0,0,0,.65-.17,1.42,1.42,0,0,0,.49-.51,2.67,2.67,0,0,0,.31-.84A5.17,5.17,0,0,0,297.41,568.75Z" transform="translate(-3.63 -11.71)"/><path class="cls-7" d="M305.35,572.13h-4.28v-.85h1.75v-5l-1.63.89-.34-.77,2.18-1.15h.8v6h1.52Z" transform="translate(-3.63 -11.71)"/><path class="cls-7" d="M312.8,568.72a6.34,6.34,0,0,1-.15,1.43,3.25,3.25,0,0,1-.48,1.1,2.18,2.18,0,0,1-.79.72,2.52,2.52,0,0,1-2.1,0,1.86,1.86,0,0,1-.77-.63,3.14,3.14,0,0,1-.49-1.09,6.05,6.05,0,0,1-.18-1.57,6.32,6.32,0,0,1,.16-1.43,3.52,3.52,0,0,1,.48-1.11,2.18,2.18,0,0,1,.79-.72,2.52,2.52,0,0,1,2.1,0,1.94,1.94,0,0,1,.77.63,3.11,3.11,0,0,1,.49,1.1A6,6,0,0,1,312.8,568.72Zm-4,0c0,.1,0,.21,0,.32s0,.21,0,.31l2.89-2.13a2.39,2.39,0,0,0-.2-.49,1.78,1.78,0,0,0-.28-.38,1.41,1.41,0,0,0-.39-.24,1.21,1.21,0,0,0-.48-.09,1.28,1.28,0,0,0-.64.17,1.42,1.42,0,0,0-.49.51,2.9,2.9,0,0,0-.32.85A5.75,5.75,0,0,0,308.76,568.69Zm3.13.06c0-.12,0-.24,0-.35l0-.35L309,570.2a2.48,2.48,0,0,0,.2.5,1.18,1.18,0,0,0,.29.4,1.19,1.19,0,0,0,.38.25,1.3,1.3,0,0,0,.49.09,1.19,1.19,0,0,0,.65-.17,1.34,1.34,0,0,0,.49-.51,2.94,2.94,0,0,0,.32-.84A5.82,5.82,0,0,0,311.89,568.75Z" transform="translate(-3.63 -11.71)"/><path class="cls-7" d="M319.83,572.13h-4.29v-.85h1.75v-5l-1.63.89-.33-.77,2.17-1.15h.8v6h1.53Z" transform="translate(-3.63 -11.71)"/><path class="cls-7" d="M327.28,568.72a6.32,6.32,0,0,1-.16,1.43,3.24,3.24,0,0,1-.47,1.1,2.39,2.39,0,0,1-2.9.76,1.86,1.86,0,0,1-.77-.63,3.14,3.14,0,0,1-.49-1.09,6.09,6.09,0,0,1-.17-1.57,5.8,5.8,0,0,1,.16-1.43,3.29,3.29,0,0,1,.47-1.11,2.26,2.26,0,0,1,.79-.72,2.33,2.33,0,0,1,1.11-.25,2.36,2.36,0,0,1,1,.21,1.91,1.91,0,0,1,.76.63,2.94,2.94,0,0,1,.49,1.1A6,6,0,0,1,327.28,568.72Zm-4,0V569a3,3,0,0,0,0,.31l2.88-2.13a2.38,2.38,0,0,0-.19-.49,1.82,1.82,0,0,0-.29-.38,1.36,1.36,0,0,0-.38-.24,1.28,1.28,0,0,0-.48-.09,1.31,1.31,0,0,0-.65.17,1.42,1.42,0,0,0-.49.51,2.65,2.65,0,0,0-.31.85A5.11,5.11,0,0,0,323.24,568.69Zm3.12.06c0-.12,0-.24,0-.35s0-.23,0-.35l-2.89,2.15a2.48,2.48,0,0,0,.2.5,1.33,1.33,0,0,0,.29.4,1.19,1.19,0,0,0,.38.25,1.31,1.31,0,0,0,.5.09,1.18,1.18,0,0,0,.64-.17,1.34,1.34,0,0,0,.49-.51,2.68,2.68,0,0,0,.32-.84A5.82,5.82,0,0,0,326.36,568.75Z" transform="translate(-3.63 -11.71)"/><path class="cls-7" d="M334.3,572.13H330v-.85h1.76v-5l-1.64.89-.33-.77,2.17-1.15h.8v6h1.53Z" transform="translate(-3.63 -11.71)"/><path class="cls-7" d="M298.33,578a5.66,5.66,0,0,1-.16,1.42,3.29,3.29,0,0,1-.47,1.11,2.26,2.26,0,0,1-.79.72,2.54,2.54,0,0,1-2.11,0,1.92,1.92,0,0,1-.77-.63,3.13,3.13,0,0,1-.48-1.09,6.05,6.05,0,0,1-.18-1.57,6.25,6.25,0,0,1,.16-1.43,3.42,3.42,0,0,1,.48-1.11,2.18,2.18,0,0,1,.79-.72,2.26,2.26,0,0,1,1.1-.25,2.48,2.48,0,0,1,1,.2,2,2,0,0,1,.77.64,3.11,3.11,0,0,1,.49,1.1A6.5,6.5,0,0,1,298.33,578Zm-4,0v.32c0,.11,0,.21,0,.31l2.89-2.13a2.39,2.39,0,0,0-.2-.49,1.53,1.53,0,0,0-.29-.38,1.07,1.07,0,0,0-.38-.24,1.21,1.21,0,0,0-.48-.09,1.18,1.18,0,0,0-.64.17,1.44,1.44,0,0,0-.5.51,2.91,2.91,0,0,0-.31.85A5.67,5.67,0,0,0,294.29,577.92Zm3.12.06c0-.12,0-.24,0-.35l0-.35-2.89,2.15a3.26,3.26,0,0,0,.2.5,1.65,1.65,0,0,0,.29.39,1.2,1.2,0,0,0,.88.35,1.31,1.31,0,0,0,.65-.17A1.5,1.5,0,0,0,297,580a2.65,2.65,0,0,0,.31-.85A5,5,0,0,0,297.41,578Z" transform="translate(-3.63 -11.71)"/><path class="cls-7" d="M305.35,581.36h-4.28v-.85h1.75v-5l-1.63.89-.34-.78L303,574.5h.8v6h1.52Z" transform="translate(-3.63 -11.71)"/><path class="cls-7" d="M312.8,578a6.19,6.19,0,0,1-.15,1.42,3.3,3.3,0,0,1-.48,1.11,2.18,2.18,0,0,1-.79.72,2.52,2.52,0,0,1-2.1,0,1.86,1.86,0,0,1-.77-.63,3.14,3.14,0,0,1-.49-1.09,6.05,6.05,0,0,1-.18-1.57,6.25,6.25,0,0,1,.16-1.43,3.42,3.42,0,0,1,.48-1.11,2.18,2.18,0,0,1,.79-.72,2.33,2.33,0,0,1,1.11-.25,2.47,2.47,0,0,1,1,.2,2,2,0,0,1,.77.64,3.11,3.11,0,0,1,.49,1.1A6,6,0,0,1,312.8,578Zm-4,0c0,.1,0,.21,0,.32s0,.21,0,.31l2.89-2.13a2.39,2.39,0,0,0-.2-.49,1.78,1.78,0,0,0-.28-.38,1.3,1.3,0,0,0-.87-.33,1.18,1.18,0,0,0-.64.17,1.42,1.42,0,0,0-.49.51,2.9,2.9,0,0,0-.32.85A5.67,5.67,0,0,0,308.76,577.92Zm3.13.06c0-.12,0-.24,0-.35l0-.35L309,579.43a2.48,2.48,0,0,0,.2.5,1.24,1.24,0,0,0,.29.39,1.22,1.22,0,0,0,.38.26,1.35,1.35,0,0,0,1.14-.08,1.42,1.42,0,0,0,.49-.51,2.9,2.9,0,0,0,.32-.85A5.64,5.64,0,0,0,311.89,578Z" transform="translate(-3.63 -11.71)"/><path class="cls-7" d="M319.83,581.36h-4.29v-.85h1.75v-5l-1.63.89-.33-.78,2.17-1.14h.8v6h1.53Z" transform="translate(-3.63 -11.71)"/><path class="cls-7" d="M327.28,578a6.16,6.16,0,0,1-.16,1.42,3.29,3.29,0,0,1-.47,1.11,2.39,2.39,0,0,1-2.9.76,1.86,1.86,0,0,1-.77-.63,3.14,3.14,0,0,1-.49-1.09,6.09,6.09,0,0,1-.17-1.57,5.74,5.74,0,0,1,.16-1.43,3.21,3.21,0,0,1,.47-1.11,2.26,2.26,0,0,1,.79-.72,2.33,2.33,0,0,1,1.11-.25,2.51,2.51,0,0,1,1,.2,1.94,1.94,0,0,1,.76.64,2.94,2.94,0,0,1,.49,1.1A6,6,0,0,1,327.28,578Zm-4,0v.32a3,3,0,0,0,0,.31l2.88-2.13a2.38,2.38,0,0,0-.19-.49,1.82,1.82,0,0,0-.29-.38,1.17,1.17,0,0,0-.38-.24,1.28,1.28,0,0,0-.48-.09,1.22,1.22,0,0,0-.65.17,1.42,1.42,0,0,0-.49.51,2.65,2.65,0,0,0-.31.85A5.06,5.06,0,0,0,323.24,577.92Zm3.12.06c0-.12,0-.24,0-.35s0-.23,0-.35l-2.89,2.15a2.48,2.48,0,0,0,.2.5,1.42,1.42,0,0,0,.29.39,1.22,1.22,0,0,0,.38.26,1.31,1.31,0,0,0,.5.09,1.28,1.28,0,0,0,.64-.17,1.42,1.42,0,0,0,.49-.51,2.65,2.65,0,0,0,.32-.85A5.64,5.64,0,0,0,326.36,578Z" transform="translate(-3.63 -11.71)"/><path class="cls-7" d="M334.3,581.36H330v-.85h1.76v-5l-1.64.89-.33-.78L332,574.5h.8v6h1.53Z" transform="translate(-3.63 -11.71)"/><path class="cls-7" d="M298.33,588.08a5.8,5.8,0,0,1-.16,1.43,3.29,3.29,0,0,1-.47,1.11,2.43,2.43,0,0,1-2.9.76,2,2,0,0,1-.77-.64,3,3,0,0,1-.48-1.09,6,6,0,0,1-.18-1.57,6.32,6.32,0,0,1,.16-1.43,3.52,3.52,0,0,1,.48-1.11,2.15,2.15,0,0,1,.79-.71,2.26,2.26,0,0,1,1.1-.26,2.33,2.33,0,0,1,1,.21,2,2,0,0,1,.77.64,3.05,3.05,0,0,1,.49,1.09A6.56,6.56,0,0,1,298.33,588.08Zm-4,0v.32c0,.11,0,.22,0,.32l2.89-2.14a2.1,2.1,0,0,0-.2-.48,1.24,1.24,0,0,0-.29-.38,1.09,1.09,0,0,0-.38-.25,1.21,1.21,0,0,0-.48-.09,1.28,1.28,0,0,0-.64.17,1.47,1.47,0,0,0-.5.52,3,3,0,0,0-.31.84A5.82,5.82,0,0,0,294.29,588.05Zm3.12.06c0-.11,0-.23,0-.35l0-.34-2.89,2.14a2.89,2.89,0,0,0,.2.5,1.53,1.53,0,0,0,.29.4,1.24,1.24,0,0,0,.39.25,1.1,1.1,0,0,0,.49.1,1.22,1.22,0,0,0,.65-.18,1.42,1.42,0,0,0,.49-.51,2.5,2.5,0,0,0,.31-.84A5.17,5.17,0,0,0,297.41,588.11Z" transform="translate(-3.63 -11.71)"/><path class="cls-7" d="M305.35,591.49h-4.28v-.85h1.75v-5l-1.63.89-.34-.77,2.18-1.14h.8v6h1.52Z" transform="translate(-3.63 -11.71)"/><path class="cls-7" d="M312.8,588.08a6.34,6.34,0,0,1-.15,1.43,3.3,3.3,0,0,1-.48,1.11,2.24,2.24,0,0,1-.79.71,2.57,2.57,0,0,1-2.1,0,2,2,0,0,1-.77-.64,3,3,0,0,1-.49-1.09,6,6,0,0,1-.18-1.57,6.32,6.32,0,0,1,.16-1.43,3.52,3.52,0,0,1,.48-1.11,2.15,2.15,0,0,1,.79-.71,2.47,2.47,0,0,1,2.1-.05,2,2,0,0,1,.77.64,3.05,3.05,0,0,1,.49,1.09A6.09,6.09,0,0,1,312.8,588.08Zm-4,0c0,.11,0,.22,0,.32s0,.22,0,.32l2.89-2.14a2.1,2.1,0,0,0-.2-.48,1.39,1.39,0,0,0-.28-.38,1.24,1.24,0,0,0-.39-.25,1.21,1.21,0,0,0-.48-.09,1.28,1.28,0,0,0-.64.17,1.45,1.45,0,0,0-.49.52,2.94,2.94,0,0,0-.32.84A5.82,5.82,0,0,0,308.76,588.05Zm3.13.06c0-.11,0-.23,0-.35l0-.34L309,589.56a2.27,2.27,0,0,0,.2.5,1.18,1.18,0,0,0,.29.4,1.19,1.19,0,0,0,.38.25,1.13,1.13,0,0,0,.49.1,1.2,1.2,0,0,0,.65-.18,1.34,1.34,0,0,0,.49-.51,2.73,2.73,0,0,0,.32-.84A5.82,5.82,0,0,0,311.89,588.11Z" transform="translate(-3.63 -11.71)"/><path class="cls-7" d="M319.83,591.49h-4.29v-.85h1.75v-5l-1.63.89-.33-.77,2.17-1.14h.8v6h1.53Z" transform="translate(-3.63 -11.71)"/><path class="cls-7" d="M327.28,588.08a6.32,6.32,0,0,1-.16,1.43,3.29,3.29,0,0,1-.47,1.11,2.36,2.36,0,0,1-.8.71,2.28,2.28,0,0,1-1.11.25,2.31,2.31,0,0,1-1-.2,2,2,0,0,1-.77-.64,3,3,0,0,1-.49-1.09,6,6,0,0,1-.17-1.57,5.8,5.8,0,0,1,.16-1.43,3.29,3.29,0,0,1,.47-1.11,2.23,2.23,0,0,1,.79-.71,2.33,2.33,0,0,1,1.11-.26,2.36,2.36,0,0,1,1,.21,1.94,1.94,0,0,1,.76.64,2.89,2.89,0,0,1,.49,1.09A6.05,6.05,0,0,1,327.28,588.08Zm-4,0v.32c0,.11,0,.22,0,.32l2.88-2.14a2.09,2.09,0,0,0-.19-.48,1.41,1.41,0,0,0-.29-.38,1.19,1.19,0,0,0-.38-.25,1.28,1.28,0,0,0-.48-.09,1.31,1.31,0,0,0-.65.17,1.45,1.45,0,0,0-.49.52,2.67,2.67,0,0,0-.31.84A5.17,5.17,0,0,0,323.24,588.05Zm3.12.06c0-.11,0-.23,0-.35s0-.23,0-.34l-2.89,2.14a2.27,2.27,0,0,0,.2.5,1.33,1.33,0,0,0,.29.4,1.19,1.19,0,0,0,.38.25,1.15,1.15,0,0,0,.5.1,1.19,1.19,0,0,0,.64-.18,1.34,1.34,0,0,0,.49-.51,2.5,2.5,0,0,0,.32-.84A5.82,5.82,0,0,0,326.36,588.11Z" transform="translate(-3.63 -11.71)"/><path class="cls-7" d="M334.3,591.49H330v-.85h1.76v-5l-1.64.89-.33-.77,2.17-1.14h.8v6h1.53Z" transform="translate(-3.63 -11.71)"/><path class="cls-7" d="M397.4,578.43c.84-.95,1.66-1.9,2.45-2.85a20.75,20.75,0,0,0,3.17.24,20.94,20.94,0,0,0,15.87-34.62l.05-.23c1.9-8.7,1-16.38-2.75-22.84-7.82-13.54-26.51-19-52.64-15.42-2.89.4-5.88.91-8.93,1.53-1-2.95-2.05-5.8-3.15-8.5-10-24.43-24-37.88-39.67-37.88s-29.72,13.45-39.67,37.88c-1,2.56-2,5.26-3,8.05a21,21,0,0,0-40.3-.41c-10.1,2.49-17.34,7.43-21.53,14.69-8.6,14.89-1.69,36.69,19,60.22-2.1,2.37-4.07,4.74-5.89,7.08-16.18,20.83-20.78,39.76-13,53.3,8.42,14.57,30,19.58,59.68,14.06a20.94,20.94,0,0,0,17.39,32.64c.58,0,1.15,0,1.71-.08l.1.12c7.62,8.85,16.44,13.52,25.51,13.52,17.19,0,32.6-16.86,42.65-46.45,3.08.62,6.09,1.14,9,1.54,26.13,3.6,44.82-1.88,52.64-15.42s3.21-32.46-13-53.29C401.35,583,399.43,580.73,397.4,578.43Zm-85.6,105c-3.72,0-7.52-1.84-11.31-5.48a20.92,20.92,0,0,0-6.79-32.31c5.95-2.05,12-4.41,18.08-7.08a231.23,231.23,0,0,0,27.9,10.28C332.37,670.27,321.88,683.39,311.8,683.39Zm-62.87-153.1a20.86,20.86,0,0,0,14.61-5.95,239.39,239.39,0,0,0-3.83,24,231.61,231.61,0,0,0-22.87,19c-15-17.1-21.12-32.77-16.07-41.51,1.76-3,5-5.32,9.59-6.81A21,21,0,0,0,248.93,530.29ZM277,536.66c.8-4.74,1.73-9.33,2.79-13.74q6.54,1.94,13.29,4.46-4.09,2.18-8.13,4.51C282.28,533.44,279.62,535,277,536.66Zm34.82-18.42A231.51,231.51,0,0,0,284.12,508q1.15-3.33,2.41-6.41c7.29-17.91,16.5-28.18,25.27-28.18s18,10.27,25.28,28.18c.83,2.06,1.64,4.21,2.41,6.43A232.65,232.65,0,0,0,311.82,518.24Zm26.72,13.59c-2.64-1.52-5.3-3-8-4.44,4.48-1.67,8.91-3.16,13.25-4.44,1.07,4.41,2,9,2.79,13.71Q342.63,534.18,338.54,531.83Zm26.81,37.33c3.69,3,7.18,6.14,10.46,9.26-3.28,3.11-6.78,6.2-10.46,9.25q.15-4.63.15-9.27T365.35,569.16Zm39-35.21c-.44,0-.88,0-1.32,0A20.93,20.93,0,0,0,385.28,566a234.68,234.68,0,0,0-21.38-17.66,231.76,231.76,0,0,0-5-29.11c2.32-.45,4.59-.82,6.78-1.12,19.16-2.64,32.66.2,37,7.79A14.11,14.11,0,0,1,404.34,534ZM258.25,569.13c-.1,3.08-.15,6.18-.15,9.27s0,6.26.16,9.38q-5.61-4.59-10.6-9.28C251,575.35,254.52,572.21,258.25,569.13Zm26.6,55.71q4.09,2.37,8.29,4.61c-4.51,1.7-9,3.21-13.32,4.52-1.07-4.44-2-9.06-2.82-13.83Q280.89,622.56,284.85,624.84Zm27-3.38c-6.44-3.05-12.9-6.44-19.21-10.08S280.31,604,274.51,600c-.57-7.06-.86-14.3-.86-21.56s.29-14.48.86-21.53c5.81-4,11.93-7.89,18.21-11.51s12.7-7,19.09-10c6.35,3,12.71,6.36,19,10s12.48,7.55,18.32,11.59c.57,7,.86,14.27.86,21.52s-.28,14.46-.84,21.51c-5.83,4-11.95,7.9-18.23,11.53S318.21,618.42,311.83,621.46Zm-74.76-31.92a229.47,229.47,0,0,0,22.64,18.91,230.54,230.54,0,0,0,5,29.3c-22.24,4.39-38.84,1.87-43.87-6.86-4.39-7.59-.1-20.71,11.77-36C234,593.14,235.5,591.34,237.07,589.54Zm106.87,44.31q-6.57-1.94-13.37-4.46,4.06-2.17,8.08-4.49c2.7-1.56,5.39-3.17,8-4.81Q345.51,627.22,343.94,633.85Zm19.92-25.35a233,233,0,0,0,22.7-18.87c1.52,1.75,2.95,3.5,4.29,5.22,11.86,15.27,16.15,28.39,11.77,36s-17.89,10.44-37.05,7.8q-3.29-.45-6.77-1.13A229,229,0,0,0,363.86,608.5Z" transform="translate(-3.63 -11.71)"/><path class="cls-8" d="M411.94,520.58c3.17,5.49,3.8,12.07,2.21,19.34a18.84,18.84,0,0,0-5.24-2.74c.87-5.22.29-9.88-1.94-13.73-5.7-9.87-21.32-13.05-42-10.2-3.88.53-7.93,1.28-12.12,2.24A223.58,223.58,0,0,1,359.24,551a223.33,223.33,0,0,1,27.56,23.27q2.32-2.5,4.44-5a18.94,18.94,0,0,0,5,2.93c-1.72,2-3.55,4.12-5.48,6.19q4.64,5,8.46,9.9c14.25,18.34,19.57,35.74,12.59,47.83s-24.71,16.18-47.72,13c-4.15-.57-8.48-1.38-12.95-2.42C342.28,675.41,328,694,311.8,694c-7.89,0-15.27-4.25-21.79-11.82a18.43,18.43,0,0,0,5.27-2.62c5.12,5.6,10.71,8.7,16.52,8.7,13.89,0,26.24-16.79,34.11-42.85a222.06,222.06,0,0,1-34.12-12.29,220.5,220.5,0,0,1-34,12.15c.15.51.31,1,.47,1.53a18.91,18.91,0,0,0-5.12,2.77c-.32-1-.62-2-.93-2.94-29.25,6.63-52.51,3.54-60.59-10.45-7-12.09-1.65-29.49,12.6-47.83q3.87-5,8.62-10.08c-20.42-22-29.41-43.78-21.32-57.78,3.62-6.28,10.14-10.39,18.79-12.46,0,.42,0,.85,0,1.28a18.55,18.55,0,0,0,.54,4.44c-6.66,1.74-11.61,4.92-14.32,9.61-7,12,1.44,31.16,20.11,51A222.85,222.85,0,0,1,264.36,551a222.45,222.45,0,0,1,6.37-35.55c-1.32-.31-2.63-.59-3.92-.85a18.7,18.7,0,0,0,.75-5.27v-.42c1.56.31,3.15.65,4.75,1,1.34-4.37,2.79-8.5,4.36-12.36,8.77-21.51,21.17-34.82,35.13-34.82s26.37,13.31,35.13,34.82c1.57,3.87,3,8,4.37,12.39q6.7-1.55,12.92-2.41c23-3.17,40.74.92,47.72,13Zm-52,38c.45,6.42.69,13,.69,19.78s-.24,13.37-.71,19.81a213.06,213.06,0,0,0,22.95-19.79,211.69,211.69,0,0,0-22.93-19.8Zm26.9,23.93a224.43,224.43,0,0,1-27.59,23.26,220.53,220.53,0,0,1-6.45,35.43q6.3,1.44,12.14,2.25c20.65,2.84,36.27-.34,42-10.21s.63-25-12.15-41.44c-2.38-3.07-5-6.17-7.92-9.29Zm-39.32,57.38A215.14,215.14,0,0,0,353,610.12c-5.35,3.62-11,7.15-16.83,10.53s-11.69,6.47-17.5,9.28a211.15,211.15,0,0,0,28.78,10ZM305,630q-8.79-4.26-17.66-9.37c-5.81-3.35-11.38-6.85-16.69-10.45a211.06,211.06,0,0,0,5.71,29.93A215.54,215.54,0,0,0,305,630Zm-40.6-24.19a221.61,221.61,0,0,1-27.51-23.32c-2.95,3.17-5.65,6.33-8.08,9.45-12.78,16.46-17.84,31.58-12.14,41.44,6.94,12,27.65,14.33,54.13,8.13a223.91,223.91,0,0,1-6.4-35.7Zm-23.74-27.25a216.27,216.27,0,0,0,23.09,19.74c-.46-6.45-.7-13.09-.7-19.86s.24-13.37.7-19.8a211.71,211.71,0,0,0-23.09,19.92Zm29.2,24.16c6.38,4.46,13.18,8.81,20.35,12.94s14.52,8,21.67,11.26c7.09-3.3,14.29-7,21.49-11.19s14.07-8.56,20.48-13.07c.68-7.79,1.05-15.9,1.05-24.22s-.37-16.43-1.07-24.23c-6.44-4.53-13.31-8.94-20.57-13.12s-14.34-7.86-21.4-11.14c-7.12,3.29-14.33,7-21.55,11.2s-14,8.54-20.45,13c-.7,7.8-1.08,15.91-1.08,24.24s.38,16.46,1.08,24.28Zm35.1-75.84a210.87,210.87,0,0,0-28.63-10,210.81,210.81,0,0,0-5.68,29.81q8-5.43,16.79-10.51t17.52-9.3Zm-27.05-15.5a222.66,222.66,0,0,1,33.95,12.27,222.09,222.09,0,0,1,33.92-12.24c-1.27-4.11-2.64-8-4.12-11.63-7.86-19.3-18.42-31.24-29.82-31.24s-22,11.94-29.82,31.24c-1.47,3.62-2.85,7.5-4.11,11.6Zm40.84,15.5c5.76,2.81,11.57,5.89,17.38,9.24S347.62,543,353,546.66a210.79,210.79,0,0,0-5.68-29.79A213.09,213.09,0,0,0,318.71,526.84Z" transform="translate(-3.63 -11.71)"/><circle class="cls-9" cx="248.93" cy="509.34" r="16.05" transform="matrix(1, -0.07, 0.07, 1, -39.11, 7.22)"/><path class="cls-7" d="M237.71,509.34a1.07,1.07,0,0,1-2.13,0A13.35,13.35,0,0,1,248.93,496a1.07,1.07,0,1,1,0,2.13,11.22,11.22,0,0,0-11.22,11.22Z" transform="translate(-3.63 -11.71)"/><path class="cls-10" d="M403,570.92a16.06,16.06,0,1,0-16-16.06A16.08,16.08,0,0,0,403,570.92Z" transform="translate(-3.63 -11.71)"/><path class="cls-7" d="M391.8,554.86a1.07,1.07,0,1,1-2.13,0A13.35,13.35,0,0,1,403,541.51a1.07,1.07,0,0,1,0,2.13,11.23,11.23,0,0,0-11.22,11.22Z" transform="translate(-3.63 -11.71)"/><circle class="cls-11" cx="284.48" cy="664.41" r="16.05" transform="translate(-25.58 -1.87) rotate(-1.91)"/><path class="cls-7" d="M273.26,664.41a1.07,1.07,0,1,1-2.13,0,13.35,13.35,0,0,1,13.35-13.35,1.07,1.07,0,0,1,0,2.13,11.22,11.22,0,0,0-11.22,11.22Z" transform="translate(-3.63 -11.71)"/><circle class="cls-12" cx="191.75" cy="170.32" r="14.95"/><circle class="cls-13" cx="266.39" cy="215.17" r="14.95"/><circle class="cls-12" cx="235.13" cy="98.43" r="14.95"/><circle class="cls-14" cx="341.48" cy="223.97" r="14.95"/><circle class="cls-13" cx="373.83" cy="104.38" r="14.95"/><circle class="cls-14" cx="422.95" cy="197.87" r="14.95"/><rect class="cls-15" x="69.26" y="246.52" width="68.98" height="97.99" rx="17.08"/><rect class="cls-16" x="77.48" y="287.23" width="52.53" height="23.14" rx="6.68"/><rect class="cls-7" x="84.14" y="292.99" width="35.5" height="2.07"/><polygon class="cls-7" points="118.89 296.6 123.35 294.02 118.89 291.44 118.89 296.6"/><rect class="cls-7" x="87.85" y="302.55" width="35.5" height="2.07"/><polygon class="cls-7" points="88.6 301.01 84.14 303.59 88.6 306.17 88.6 301.01"/><rect class="cls-17" x="77.48" y="315.92" width="52.53" height="23.14" rx="6.68"/><rect class="cls-7" x="85.13" y="326.42" width="12.82" height="2.07"/><polygon class="cls-7" points="97.2 330.03 101.67 327.45 97.2 324.87 97.2 330.03"/><rect class="cls-7" x="105.82" y="326.45" width="12.82" height="2.07"/><polygon class="cls-7" points="117.89 330.07 122.36 327.49 117.89 324.91 117.89 330.07"/><rect class="cls-7" x="109.56" y="332.62" width="12.82" height="2.07" transform="translate(-107.55 45.5) rotate(-19.33)"/><polygon class="cls-7" points="118.53 322.51 121.89 318.6 116.82 317.64 118.53 322.51"/><rect class="cls-7" x="114.93" y="338.32" width="2.07" height="12.82" transform="translate(-251.35 328.33) rotate(-70.67)"/><polygon class="cls-7" points="116.82 337.33 121.89 336.38 118.53 332.46 116.82 337.33"/><circle class="cls-8" cx="103.74" cy="266.59" r="14.61"/><rect class="cls-7" x="102.84" y="253.99" width="1.82" height="7.98"/><polygon class="cls-7" points="101.48 261.31 103.74 265.24 106.01 261.31 101.48 261.31"/><rect class="cls-7" x="102.84" y="270.88" width="1.82" height="7.98"/><polygon class="cls-7" points="106.01 271.55 103.75 267.62 101.48 271.55 106.01 271.55"/><rect class="cls-7" x="108.2" y="265.52" width="7.98" height="1.82"/><polygon class="cls-7" points="108.86 264.16 104.94 266.43 108.86 268.69 108.86 264.16"/><rect class="cls-7" x="91.31" y="265.52" width="7.98" height="1.82"/><polygon class="cls-7" points="98.63 268.69 102.55 266.43 98.63 264.16 98.63 268.69"/><path d="M34.91,310.51H34l-2.7-8c-.17-.49-.27-1-.41-1.53h-.07c.05.77.13,1.53.13,2.31v7.26h-1V298.56h1l2.74,8.3c.15.42.26.83.37,1.24h.05c0-.52-.11-1.06-.11-1.58v-8h1Z" transform="translate(-3.63 -11.71)"/><path d="M40.65,299.57H37.94v4.22h2.57v1H37.94v5.71H36.83V298.56h3.82Z" transform="translate(-3.63 -11.71)"/><path d="M8.37,329.21a2.8,2.8,0,0,1-1.52.49C4,329.7,3.63,326,3.63,324s.06-6.56,3.33-6.56a2.58,2.58,0,0,1,1.41.38V319A2.36,2.36,0,0,0,7,318.51c-1.94,0-2.21,2.81-2.21,5,0,1.4,0,5.09,2.13,5.09a2.61,2.61,0,0,0,1.47-.53Z" transform="translate(-3.63 -11.71)"/><path d="M14,325.47c0,1.54-.2,4.2-2.34,4.2s-2.33-2.66-2.33-4.2.19-4.19,2.33-4.19S14,324,14,325.47Zm-3.6,0c0,.79,0,3.23,1.26,3.23s1.27-2.44,1.27-3.23,0-3.22-1.27-3.22S10.39,324.69,10.39,325.47Z" transform="translate(-3.63 -11.71)"/><path d="M16.22,322.06a2.15,2.15,0,0,1,1.6-.78c1.45,0,1.57,1.34,1.57,2.45v5.81h-1v-5.7c0-1-.06-1.72-.92-1.72-1.17,0-1.22,1.29-1.22,2.14v5.28h-1v-8.13h1Z" transform="translate(-3.63 -11.71)"/><path d="M23.36,322.36H22v7.18H21v-7.18h-.87v-.95H21V319c0-1.38.37-2.29,1.52-2.29a2.24,2.24,0,0,1,.91.18V318a1.25,1.25,0,0,0-.75-.35c-.57,0-.65.5-.65,1.31v2.42h1.35Z" transform="translate(-3.63 -11.71)"/><path d="M24.65,319.78a.77.77,0,1,1,0-1.54.77.77,0,0,1,0,1.54Zm.5,9.76h-1v-8.13h1Z" transform="translate(-3.63 -11.71)"/><path d="M30.77,329.84c0,1.53-.07,2.94-2.13,2.94-1.43,0-2.09-.86-2.09-2.25v-.3h1v.14c0,.76.21,1.44,1.1,1.44,1.15,0,1.06-1,1.06-1.89V329a1.64,1.64,0,0,1-1.32.57c-2,0-2.06-2.8-2.06-4.25s.16-4,2.05-4a1.56,1.56,0,0,1,1.31.69h0v-.56h1Zm-2.08-1.14c1.09,0,1.14-1.6,1.14-3.37,0-1.49-.1-3.21-1.22-3.21-.75,0-1.21.51-1.21,3.49C27.4,326.5,27.39,328.7,28.69,328.7Z" transform="translate(-3.63 -11.71)"/><path d="M33.16,321.41v5.11c0,1.11.07,2.18,1.08,2.18s1.09-1.07,1.11-2.18v-5.11h1v6a2.13,2.13,0,1,1-4.25,0v-6Z" transform="translate(-3.63 -11.71)"/><path d="M38.78,322.49h0c.22-.57.66-1.22,1.34-1.21v1.21l-.2,0c-1.06,0-1.17,1-1.17,2.33v4.74h-1v-8.13h1Z" transform="translate(-3.63 -11.71)"/><path d="M45.1,329.54h-1v-.63h0a1.57,1.57,0,0,1-1.35.76c-1.3,0-1.93-.73-1.93-4.28,0-1.82.06-4.11,2-4.11A1.42,1.42,0,0,1,44,322h0v-.56h1ZM43,322.12c-1.15,0-1.21,1.81-1.21,3.19,0,3.36.56,3.52,1.16,3.52,1,0,1.19-.94,1.19-3.49C44.17,323.58,44,322.12,43,322.12Z" transform="translate(-3.63 -11.71)"/><path d="M49.34,322.36H48v7.18H47v-7.18h-.87v-.95H47v-2.22h1v2.22h1.35Z" transform="translate(-3.63 -11.71)"/><path d="M50.39,319.78a.77.77,0,1,1,0-1.54.77.77,0,0,1,0,1.54Zm.5,9.76h-1v-8.13h1Z" transform="translate(-3.63 -11.71)"/><path d="M56.74,325.47c0,1.54-.19,4.2-2.33,4.2s-2.33-2.66-2.33-4.2.19-4.19,2.33-4.19S56.74,324,56.74,325.47Zm-3.6,0c0,.79,0,3.23,1.27,3.23s1.27-2.44,1.27-3.23,0-3.22-1.27-3.22S53.14,324.69,53.14,325.47Z" transform="translate(-3.63 -11.71)"/><path d="M59,322.06a2.13,2.13,0,0,1,1.6-.78c1.45,0,1.57,1.34,1.57,2.45v5.81h-1v-5.7c0-1-.06-1.72-.92-1.72-1.17,0-1.22,1.29-1.22,2.14v5.28H58v-8.13h1Z" transform="translate(-3.63 -11.71)"/><path d="M66.69,323.08h0a1.74,1.74,0,0,0-1.35-.83,1,1,0,0,0-1,1.08c0,.78.67,1.25,1.32,1.79a2.83,2.83,0,0,1,1.32,2.22,2.2,2.2,0,0,1-2.22,2.33,2.59,2.59,0,0,1-1.48-.55v-1.21a2,2,0,0,0,1.44.79,1.17,1.17,0,0,0,1.19-1.23c0-.81-.65-1.35-1.31-1.94a3,3,0,0,1-1.32-2.17,2,2,0,0,1,2-2.08,2.36,2.36,0,0,1,1.43.53Z" transform="translate(-3.63 -11.71)"/><line class="cls-18" x1="477.69" y1="223.97" x2="365.82" y2="223.97"/><path class="cls-3" d="M481,230a5.64,5.64,0,1,1-5.64,5.64A5.63,5.63,0,0,1,481,230Z" transform="translate(-3.63 -11.71)"/><circle class="cls-3" cx="369.74" cy="235.68" r="5.64" transform="translate(-65.68 147.73) rotate(-22.5)"/><polyline class="cls-18" points="206.14 98.43 103.75 98.43 103.75 235.58"/><path class="cls-3" d="M209.48,104.5a5.64,5.64,0,1,1-5.64,5.64A5.63,5.63,0,0,1,209.48,104.5Z" transform="translate(-3.63 -11.71)"/><path class="cls-3" d="M101.74,247a5.64,5.64,0,1,0,5.64-5.64A5.64,5.64,0,0,0,101.74,247Z" transform="translate(-3.63 -11.71)"/><path d="M502,219.49h1.21c2.28,0,3.77.29,3.77,6,0,4.67-.76,6-3.69,6H502Zm1.11,10.94h.32c2.14,0,2.41-1.51,2.41-5,0-4.11-.43-5-2.54-5h-.19Z" transform="translate(-3.63 -11.71)"/><path d="M508.5,231.44V219.49h1.24c1.71,0,3.23.16,3.23,3.11,0,2.31-.81,3.12-3.08,3.12h-.28v5.72Zm1.11-6.73H510c1.55,0,1.74-.58,1.79-2.11s-.45-2.1-2-2.1h-.22Z" transform="translate(-3.63 -11.71)"/><path d="M514.18,219.49h1.2c2.29,0,3.78.29,3.78,6,0,4.67-.77,6-3.7,6h-1.28Zm1.11,10.94h.31c2.14,0,2.41-1.51,2.41-5,0-4.11-.43-5-2.53-5h-.19Z" transform="translate(-3.63 -11.71)"/><path d="M522.79,225.18l2.69,6.26h-1.25l-2.38-6h0v6h-1.11V219.49h1.11v5.42h0l2.38-5.42h1.24Z" transform="translate(-3.63 -11.71)"/><path d="M496.87,249.46h2.6v1h-3.71v-12h1.11Z" transform="translate(-3.63 -11.71)"/><path d="M500.71,240.71a.77.77,0,1,1,.76-.78A.77.77,0,0,1,500.71,240.71Zm.51,9.77h-1v-8.14h1Z" transform="translate(-3.63 -11.71)"/><path d="M502.65,237.79h1v5.11h0a1.38,1.38,0,0,1,1.27-.68c1.88,0,2,2.26,2,4.1,0,2.06-.16,4.28-1.93,4.28a1.57,1.57,0,0,1-1.35-.76h0v.64h-1Zm3.28,8.45c0-1.85-.18-3.18-1.21-3.18-1.25,0-1.14,2.39-1.14,3.12,0,1-.12,3.58,1.19,3.58C505.61,249.76,505.93,249,505.93,246.24Z" transform="translate(-3.63 -11.71)"/><path d="M509.21,243.42h0c.23-.57.67-1.22,1.35-1.2v1.2h-.2c-1.07,0-1.18,1-1.18,2.33v4.74h-1v-8.14h1Z" transform="translate(-3.63 -11.71)"/><path d="M515.54,250.48h-1v-.64h0a1.57,1.57,0,0,1-1.35.76c-1.3,0-1.93-.73-1.93-4.28,0-1.82.06-4.1,2-4.1a1.42,1.42,0,0,1,1.26.68h0v-.56h1Zm-2.08-7.42c-1.14,0-1.2,1.8-1.2,3.18,0,3.36.55,3.52,1.16,3.52,1,0,1.18-.93,1.18-3.48C514.6,244.52,514.48,243.06,513.46,243.06Z" transform="translate(-3.63 -11.71)"/><path d="M518,243.42h0c.22-.57.67-1.22,1.35-1.2v1.2h-.21c-1.06,0-1.17,1-1.17,2.33v4.74h-1v-8.14h1Z" transform="translate(-3.63 -11.71)"/><path d="M520.74,240.71a.77.77,0,1,1,0-1.54.77.77,0,0,1,0,1.54Zm.51,9.77h-1v-8.14h1Z" transform="translate(-3.63 -11.71)"/><path d="M523.5,246.62v.24c0,.81.15,2.78,1.27,2.78.9,0,1-1.27,1-1.92h1.06c0,1.23-.49,2.88-2,2.88-2.14,0-2.43-2.53-2.43-4.17,0-1.46.32-4.21,2.28-4.21s2.21,2.49,2.21,3.91v.49Zm2.38-.87v-.14c0-.78-.07-2.43-1.15-2.43s-1.2,1.84-1.2,2.57Z" transform="translate(-3.63 -11.71)"/><path d="M531.22,244h0a1.73,1.73,0,0,0-1.34-.83,1,1,0,0,0-1,1.08c0,.78.67,1.25,1.32,1.79a2.85,2.85,0,0,1,1.31,2.22,2.19,2.19,0,0,1-2.22,2.33,2.52,2.52,0,0,1-1.47-.55v-1.21a2,2,0,0,0,1.44.8,1.19,1.19,0,0,0,1.19-1.24c0-.81-.65-1.35-1.32-1.93a3,3,0,0,1-1.31-2.18,2,2,0,0,1,2-2.07,2.32,2.32,0,0,1,1.42.52Z" transform="translate(-3.63 -11.71)"/><polygon class="cls-19" points="544.11 193.74 544.11 240.94 578.89 240.94 578.89 201.22 571.4 193.74 544.11 193.74"/><polyline class="cls-20" points="578.89 201.22 571.4 201.22 571.4 193.74"/><line class="cls-21" x1="578.89" y1="201.23" x2="571.4" y2="193.74"/><path d="M554,222.42h1.18c2.24,0,3.71.28,3.71,5.87,0,4.59-.75,5.86-3.63,5.86H554Zm1.09,10.74h.31c2.1,0,2.36-1.48,2.36-4.87,0-4-.42-4.88-2.49-4.88h-.18Z" transform="translate(-3.63 -11.71)"/><path d="M560.4,234.15V222.42h1.22c1.68,0,3.17.15,3.17,3.05,0,2.27-.79,3.06-3,3.06h-.28v5.62Zm1.09-6.61h.42c1.53,0,1.71-.56,1.76-2.07s-.43-2.06-2-2.06h-.22Z" transform="translate(-3.63 -11.71)"/><path d="M566,222.42h1.18c2.24,0,3.7.28,3.7,5.87,0,4.59-.74,5.86-3.62,5.86H566Zm1.09,10.74h.31c2.1,0,2.36-1.48,2.36-4.87,0-4-.42-4.88-2.49-4.88h-.18Z" transform="translate(-3.63 -11.71)"/><path d="M574.43,228l2.64,6.14h-1.23l-2.33-5.91h0v5.91h-1.09V222.42h1.09v5.32h0l2.33-5.32h1.22Z" transform="translate(-3.63 -11.71)"/><polygon class="cls-19" points="539.27 200.37 539.27 247.57 574.06 247.57 574.06 207.86 566.57 200.37 539.27 200.37"/><polyline class="cls-20" points="574.06 207.86 566.57 207.86 566.57 200.37"/><line class="cls-21" x1="574.06" y1="207.86" x2="566.57" y2="200.37"/><path d="M549.16,229.05h1.18c2.24,0,3.71.28,3.71,5.87,0,4.59-.75,5.87-3.63,5.87h-1.26Zm1.09,10.74h.31c2.1,0,2.37-1.48,2.37-4.87,0-4-.42-4.87-2.49-4.87h-.19Z" transform="translate(-3.63 -11.71)"/><path d="M555.57,240.79V229.05h1.22c1.68,0,3.17.16,3.17,3,0,2.27-.79,3.07-3,3.07h-.28v5.62Zm1.09-6.62h.42c1.53,0,1.71-.56,1.76-2.07s-.43-2-2-2h-.22Z" transform="translate(-3.63 -11.71)"/><path d="M561.15,229.05h1.18c2.24,0,3.7.28,3.7,5.87,0,4.59-.74,5.87-3.62,5.87h-1.26Zm1.09,10.74h.31c2.1,0,2.36-1.48,2.36-4.87,0-4-.42-4.87-2.49-4.87h-.18Z" transform="translate(-3.63 -11.71)"/><path d="M569.6,234.64l2.65,6.15H571l-2.34-5.92h0v5.92h-1.09V229.05h1.09v5.32h0l2.34-5.32h1.21Z" transform="translate(-3.63 -11.71)"/><polygon class="cls-19" points="534.2 207 534.2 254.2 568.98 254.2 568.98 214.49 561.5 207 534.2 207"/><polyline class="cls-20" points="568.98 214.49 561.5 214.49 561.5 207"/><line class="cls-21" x1="568.98" y1="214.49" x2="561.5" y2="207.01"/><path d="M544.28,235.89h1.16c2.2,0,3.64.27,3.64,5.76,0,4.51-.74,5.77-3.56,5.77h-1.24Zm1.07,10.55h.3c2.07,0,2.33-1.45,2.33-4.79,0-4-.42-4.78-2.45-4.78h-.18Z" transform="translate(-3.63 -11.71)"/><path d="M550.58,247.42V235.89h1.19c1.65,0,3.12.15,3.12,3,0,2.24-.78,3-3,3h-.27v5.52Zm1.07-6.5h.41c1.5,0,1.68-.55,1.73-2s-.43-2-1.93-2h-.21Z" transform="translate(-3.63 -11.71)"/><path d="M556.05,235.89h1.17c2.2,0,3.63.27,3.63,5.76,0,4.51-.73,5.77-3.56,5.77h-1.24Zm1.07,10.55h.31c2.06,0,2.32-1.45,2.32-4.79,0-4-.41-4.78-2.44-4.78h-.19Z" transform="translate(-3.63 -11.71)"/><path d="M564.36,241.38l2.6,6h-1.21l-2.29-5.81h0v5.81h-1.07V235.89h1.07v5.23h0l2.29-5.23h1.19Z" transform="translate(-3.63 -11.71)"/><polyline class="cls-18" points="373.83 74.25 373.83 28.47 396.2 28.47"/><path class="cls-3" d="M383.1,85.68A5.64,5.64,0,1,1,377.46,80,5.64,5.64,0,0,1,383.1,85.68Z" transform="translate(-3.63 -11.71)"/><path class="cls-3" d="M399.55,45.82a5.64,5.64,0,1,0-5.64-5.64A5.64,5.64,0,0,0,399.55,45.82Z" transform="translate(-3.63 -11.71)"/><path d="M465.62,16.49h1.2c2.28,0,3.77.29,3.77,6,0,4.68-.76,6-3.69,6h-1.28Zm1.11,10.94H467c2.14,0,2.41-1.51,2.41-5,0-4.11-.43-5-2.53-5h-.19Z" transform="translate(-3.63 -11.71)"/><path d="M476,28.45h-1v-.64h0a1.57,1.57,0,0,1-1.35.76c-1.3,0-1.94-.73-1.94-4.28,0-1.82.07-4.1,2-4.1a1.42,1.42,0,0,1,1.26.68h0v-.56h1ZM473.94,21c-1.14,0-1.2,1.8-1.2,3.18,0,3.36.55,3.52,1.15,3.52,1,0,1.19-.93,1.19-3.49C475.08,22.48,475,21,473.94,21Z" transform="translate(-3.63 -11.71)"/><path d="M480.25,21.26h-1.34v7.19h-1V21.26H477v-1h.88V18.09h1v2.22h1.34Z" transform="translate(-3.63 -11.71)"/><path d="M484.88,28.45h-1v-.64h0a1.57,1.57,0,0,1-1.34.76c-1.31,0-1.94-.73-1.94-4.28,0-1.82.06-4.1,2-4.1a1.4,1.4,0,0,1,1.25.68h0v-.56h1ZM482.81,21c-1.14,0-1.21,1.8-1.21,3.18,0,3.36.56,3.52,1.16,3.52,1,0,1.19-.93,1.19-3.49C484,22.48,483.82,21,482.81,21Z" transform="translate(-3.63 -11.71)"/><path d="M487.34,20.87h0a1.4,1.4,0,0,1,1.26-.68c1.89,0,2,2.45,2,4.1,0,1.84-.05,4.28-1.94,4.28a1.57,1.57,0,0,1-1.34-.76h0v3.74h-1V20.31h1Zm2.26,3.42c0-1.25,0-3.26-1.21-3.26s-1.14,1.68-1.14,3.12.06,3.58,1.19,3.58C489.39,27.73,489.6,26.8,489.6,24.29Z" transform="translate(-3.63 -11.71)"/><path d="M492.88,28.45h-1V15.76h1Z" transform="translate(-3.63 -11.71)"/><path d="M498.41,28.45h-1v-.64h0a1.57,1.57,0,0,1-1.35.76c-1.3,0-1.93-.73-1.93-4.28,0-1.82.06-4.1,2-4.1a1.41,1.41,0,0,1,1.25.68h0v-.56h1ZM496.34,21c-1.14,0-1.21,1.8-1.21,3.18,0,3.36.56,3.52,1.16,3.52,1,0,1.19-.93,1.19-3.49C497.48,22.48,497.35,21,496.34,21Z" transform="translate(-3.63 -11.71)"/><path d="M500.87,21a2.14,2.14,0,0,1,1.6-.77c1.45,0,1.57,1.33,1.57,2.44v5.82h-1V22.74c0-1-.06-1.71-.92-1.71-1.17,0-1.22,1.28-1.22,2.14v5.28h-1V20.31h1Z" transform="translate(-3.63 -11.71)"/><path d="M506.3,24.59v.24c0,.81.14,2.78,1.27,2.78.9,0,1-1.27,1-1.92h1.06c0,1.23-.49,2.88-2,2.88-2.14,0-2.42-2.53-2.42-4.17,0-1.46.31-4.21,2.28-4.21s2.2,2.48,2.2,3.91v.49Zm2.38-.87,0-.14c0-.78-.06-2.43-1.14-2.43s-1.21,1.84-1.21,2.57Z" transform="translate(-3.63 -11.71)"/><path d="M466.72,36.54H464v4.22h2.56v1H464v5.71H462.9v-12h3.82Z" transform="translate(-3.63 -11.71)"/><path d="M469.13,40.42h0c.22-.57.67-1.22,1.35-1.2v1.2h-.21c-1.06,0-1.17,1-1.17,2.33v4.74h-1V39.35h1Z" transform="translate(-3.63 -11.71)"/><path d="M475.46,47.48h-1v-.64h0a1.58,1.58,0,0,1-1.34.77c-1.3,0-1.94-.73-1.94-4.29,0-1.82.07-4.1,2-4.1a1.42,1.42,0,0,1,1.25.68h0v-.55h1Zm-2.08-7.42c-1.14,0-1.21,1.81-1.21,3.19,0,3.36.56,3.51,1.16,3.51,1,0,1.19-.93,1.19-3.48C474.52,41.52,474.39,40.06,473.38,40.06Z" transform="translate(-3.63 -11.71)"/><path d="M477.92,40h0a2,2,0,0,1,1.54-.81,1.59,1.59,0,0,1,1.5,1,2,2,0,0,1,1.68-1c1.52,0,1.65,1.2,1.65,2.41v5.85h-1V41.66c0-.78-.08-1.6-.92-1.6-1.22,0-1.25,1.38-1.25,2.41v5h-1v-5.8c0-.77,0-1.62-.89-1.62-1.25,0-1.28,1.55-1.28,2.58v4.84h-1V39.35h1Z" transform="translate(-3.63 -11.71)"/><path d="M486.58,43.63v.23c0,.81.14,2.78,1.26,2.78.91,0,1-1.27,1-1.92h1.07c0,1.24-.5,2.89-2,2.89-2.14,0-2.43-2.54-2.43-4.17,0-1.46.32-4.22,2.29-4.22s2.2,2.49,2.2,3.91v.5Zm2.37-.88v-.14c0-.78-.07-2.42-1.14-2.42s-1.21,1.83-1.21,2.56Z" transform="translate(-3.63 -11.71)"/><path d="M496.5,47.48h-1.06l-.94-5.9c0-.28,0-.59-.08-.87h0c-.05.49-.08,1-.16,1.47l-.87,5.3H492.3l-1.65-8.13h1.05l.78,4.8c.09.62.22,1.22.33,1.84h.06c.08-.62.14-1.22.24-1.84l.79-4.8H495L495.8,45l.15,1H496c.07-.53.12-1.06.23-1.59l1-5h1Z" transform="translate(-3.63 -11.71)"/><path d="M503.61,43.4c0,1.54-.19,4.21-2.33,4.21S499,44.94,499,43.4s.19-4.18,2.33-4.18S503.61,41.88,503.61,43.4Zm-3.6,0c0,.8,0,3.24,1.27,3.24s1.26-2.44,1.26-3.24,0-3.21-1.26-3.21S500,42.63,500,43.4Z" transform="translate(-3.63 -11.71)"/><path d="M505.85,40.42h0c.22-.57.66-1.22,1.34-1.2v1.2H507c-1.06,0-1.17,1-1.17,2.33v4.74h-1V39.35h1Z" transform="translate(-3.63 -11.71)"/><path d="M509.1,42.64h0l2-3.29h1.17L509.86,43l3.06,4.49h-1.29l-2.5-3.9h0v3.9h-1V34.8h1Z" transform="translate(-3.63 -11.71)"/><path d="M477.31,56.44a2.3,2.3,0,0,0-1.76-1,1.77,1.77,0,0,0-1.73,1.93c0,1.4,1,2.05,2.05,2.74s2,1.48,2,3.13a3.15,3.15,0,0,1-3,3.39,3.1,3.1,0,0,1-1.88-.6V64.62a2.71,2.71,0,0,0,1.93,1,1.91,1.91,0,0,0,1.81-2.11c0-1.39-1-2-2-2.72a3.67,3.67,0,0,1-2.05-3.19,2.91,2.91,0,0,1,2.75-3.17,3.24,3.24,0,0,1,1.88.63Z" transform="translate(-3.63 -11.71)"/><path d="M483.51,62.44c0,1.53-.19,4.2-2.33,4.2s-2.33-2.67-2.33-4.2.19-4.19,2.33-4.19S483.51,60.91,483.51,62.44Zm-3.59,0c0,.79,0,3.23,1.26,3.23s1.27-2.44,1.27-3.23,0-3.22-1.27-3.22S479.92,61.66,479.92,62.44Z" transform="translate(-3.63 -11.71)"/><path d="M485.69,58.38v5.1c0,1.11.06,2.19,1.08,2.19s1.09-1.08,1.11-2.19v-5.1h1v6a2.13,2.13,0,1,1-4.25,0v-6Z" transform="translate(-3.63 -11.71)"/><path d="M491.3,59.46h0c.23-.58.67-1.23,1.35-1.21v1.21l-.21,0c-1.06,0-1.17,1-1.17,2.33v4.74h-1V58.38h1Z" transform="translate(-3.63 -11.71)"/><path d="M496.79,59.76a1.43,1.43,0,0,0-1-.54c-1.34,0-1.46,2.31-1.46,3.25s.17,3.2,1.39,3.2a1.27,1.27,0,0,0,1-.73h0v1.29a2,2,0,0,1-1.17.41c-1.87,0-2.33-2.63-2.33-4s.31-4.36,2.37-4.36a2.17,2.17,0,0,1,1.13.32Z" transform="translate(-3.63 -11.71)"/><path d="M498.76,62.66v.24c0,.8.14,2.77,1.26,2.77.91,0,1-1.27,1-1.92h1.06c0,1.24-.49,2.89-2,2.89-2.14,0-2.43-2.54-2.43-4.17,0-1.46.32-4.22,2.29-4.22s2.2,2.49,2.2,3.92v.49Zm2.37-.87v-.15c0-.77-.06-2.42-1.14-2.42s-1.21,1.84-1.21,2.57Z" transform="translate(-3.63 -11.71)"/><polygon class="cls-22" points="421.76 0.25 421.76 44.31 454.23 44.31 454.23 7.24 447.24 0.25 421.76 0.25"/><polyline class="cls-23" points="454.23 7.24 447.24 7.24 447.24 0.25"/><line class="cls-21" x1="454.23" y1="7.24" x2="447.24" y2="0.25"/><path d="M431.23,27.8h1.1c2.09,0,3.46.26,3.46,5.47,0,4.29-.7,5.48-3.39,5.48h-1.17Zm1,10h.29c2,0,2.21-1.38,2.21-4.55,0-3.76-.39-4.54-2.32-4.54h-.18Z" transform="translate(-3.63 -11.71)"/><path d="M437.21,38.75V27.8h1.14c1.57,0,3,.14,3,2.85,0,2.12-.74,2.86-2.82,2.86h-.26v5.24Zm1-6.17h.39c1.43,0,1.6-.53,1.64-1.93s-.4-1.92-1.83-1.92h-.2Z" transform="translate(-3.63 -11.71)"/><path d="M442.42,27.8h1.1c2.09,0,3.46.26,3.46,5.47,0,4.29-.7,5.48-3.39,5.48h-1.17Zm1,10h.29c2,0,2.21-1.38,2.21-4.55,0-3.76-.39-4.54-2.32-4.54h-.18Z" transform="translate(-3.63 -11.71)"/><path d="M450.31,33l2.47,5.74h-1.15l-2.18-5.52h0v5.52h-1V27.8h1v5h0l2.18-5h1.13Z" transform="translate(-3.63 -11.71)"/><polygon class="cls-22" points="417.25 6.44 417.25 50.5 449.72 50.5 449.72 13.43 442.73 6.44 417.25 6.44"/><polyline class="cls-23" points="449.72 13.43 442.73 13.43 442.73 6.44"/><line class="cls-21" x1="449.72" y1="13.43" x2="442.73" y2="6.44"/><path d="M426.71,34h1.11c2.09,0,3.46.26,3.46,5.48,0,4.28-.7,5.47-3.39,5.47h-1.18Zm1,10H428c2,0,2.21-1.38,2.21-4.54,0-3.77-.39-4.55-2.32-4.55h-.18Z" transform="translate(-3.63 -11.71)"/><path d="M432.7,44.94V34h1.14c1.56,0,3,.15,3,2.85,0,2.12-.74,2.86-2.82,2.86h-.26v5.24Zm1-6.17h.39c1.43,0,1.6-.52,1.64-1.93s-.4-1.92-1.83-1.92h-.2Z" transform="translate(-3.63 -11.71)"/><path d="M437.91,34H439c2.09,0,3.46.26,3.46,5.48,0,4.28-.7,5.47-3.39,5.47h-1.17Zm1,10h.29c2,0,2.21-1.38,2.21-4.54,0-3.77-.39-4.55-2.32-4.55h-.18Z" transform="translate(-3.63 -11.71)"/><path d="M445.8,39.21l2.47,5.73h-1.15l-2.18-5.52h0v5.52h-1V34h1v5h0l2.18-5h1.13Z" transform="translate(-3.63 -11.71)"/><polygon class="cls-22" points="412.51 12.63 412.51 56.69 444.98 56.69 444.98 19.62 437.99 12.63 412.51 12.63"/><polyline class="cls-23" points="444.98 19.62 437.99 19.62 437.99 12.63"/><line class="cls-21" x1="444.98" y1="19.62" x2="437.99" y2="12.63"/><path d="M422.38,50.84a2.59,2.59,0,0,1-1.36.44c-2.51,0-2.88-3.27-2.88-5.1s.06-5.86,3-5.86a2.34,2.34,0,0,1,1.26.34v1.09a2.12,2.12,0,0,0-1.25-.47c-1.73,0-2,2.51-2,4.49,0,1.25,0,4.54,1.9,4.54a2.34,2.34,0,0,0,1.32-.48Z" transform="translate(-3.63 -11.71)"/><path d="M423.41,54.19h-.86l6.24-14.38h.85Z" transform="translate(-3.63 -11.71)"/><path d="M434.15,50.84a2.61,2.61,0,0,1-1.36.44c-2.51,0-2.88-3.27-2.88-5.1s.06-5.86,3-5.86a2.34,2.34,0,0,1,1.26.34v1.09a2.12,2.12,0,0,0-1.25-.47c-1.73,0-2,2.51-2,4.49,0,1.25,0,4.54,1.9,4.54a2.36,2.36,0,0,0,1.32-.48Z" transform="translate(-3.63 -11.71)"/><path d="M434.87,47.86v-.72h2.49V44h.72v3.1h2.5v.72h-2.5V51h-.72V47.86Z" transform="translate(-3.63 -11.71)"/><path d="M441.16,47.86v-.72h2.49V44h.72v3.1h2.49v.72h-2.49V51h-.72V47.86Z" transform="translate(-3.63 -11.71)"/><path d="M514.3,570.48c0,2.24-.16,6.14-2.93,6.14s-2.94-3.35-2.94-6.14c0-3,.4-6.13,2.94-6.13S514.3,567.85,514.3,570.48Zm-4.73,0c0,2.11.08,5.06,1.8,5.06s1.79-2.95,1.79-5.06-.08-5.05-1.79-5.05S509.57,568.37,509.57,570.48Z" transform="translate(-3.63 -11.71)"/><path d="M516.65,568.88h0a1.44,1.44,0,0,1,1.27-.68c1.88,0,2,2.46,2,4.11,0,1.84-.05,4.28-1.93,4.28a1.57,1.57,0,0,1-1.35-.76h0v3.74h-1V568.33h1Zm2.25,3.43c0-1.26,0-3.27-1.21-3.27s-1.14,1.68-1.14,3.12.07,3.59,1.19,3.59C518.69,575.75,518.9,574.81,518.9,572.31Z" transform="translate(-3.63 -11.71)"/><path d="M524,569.28h-1.35v7.18h-1v-7.18h-.87v-.95h.87v-2.22h1v2.22H524Z" transform="translate(-3.63 -11.71)"/><path d="M525,566.69a.77.77,0,1,1,.76-.77A.78.78,0,0,1,525,566.69Zm.5,9.77h-1v-8.13h1Z" transform="translate(-3.63 -11.71)"/><path d="M528,569h0a2,2,0,0,1,1.54-.81,1.59,1.59,0,0,1,1.51,1,2,2,0,0,1,1.68-1c1.52,0,1.65,1.21,1.65,2.41v5.85h-1v-5.82c0-.77-.08-1.6-.92-1.6-1.22,0-1.26,1.38-1.26,2.41v5h-1v-5.8c0-.76,0-1.62-.88-1.62-1.26,0-1.29,1.55-1.29,2.59v4.83h-1v-8.13h1Z" transform="translate(-3.63 -11.71)"/><path d="M536.33,566.69a.77.77,0,1,1,.76-.77A.78.78,0,0,1,536.33,566.69Zm.51,9.77h-1v-8.13h1Z" transform="translate(-3.63 -11.71)"/><path d="M542,576.46h-4.23l3.22-7.18h-2.78v-.95h4.33l-3.3,7.18H542Z" transform="translate(-3.63 -11.71)"/><path d="M544.34,572.61v.24c0,.8.14,2.77,1.27,2.77.9,0,1-1.27,1-1.92h1.06c0,1.24-.49,2.89-2,2.89-2.14,0-2.42-2.54-2.42-4.17,0-1.46.31-4.22,2.28-4.22s2.2,2.49,2.2,3.92v.49Zm2.38-.87,0-.15c0-.77-.06-2.42-1.14-2.42s-1.2,1.84-1.2,2.57Z" transform="translate(-3.63 -11.71)"/><path d="M552,575.83h0a1.57,1.57,0,0,1-1.35.76c-1.69,0-1.93-2.06-1.93-4.28s.22-4.11,2-4.11a1.43,1.43,0,0,1,1.25.68h0v-5.1h1v12.68h-1ZM551,569c-1.16,0-1.21,2-1.21,3.19,0,.76-.16,3.52,1.16,3.52,1.09,0,1.19-1.35,1.19-3.49C552.13,570.4,551.94,569,551,569Z" transform="translate(-3.63 -11.71)"/><path d="M518.94,583.54c1.57,0,2.87.19,2.87,3a2.76,2.76,0,0,1-1.4,2.81c1.43.46,1.68,1.57,1.68,2.9,0,2.49-.85,3.28-3.26,3.28h-1.44v-12Zm-.44,1v4.33h.3c.9,0,1.87.16,1.87-2.24,0-1.88-.45-2.09-1.87-2.09Zm0,5.28v4.77h.3c1.66,0,2.15-.54,2.15-2.25,0-2-.71-2.52-2.12-2.52Z" transform="translate(-3.63 -11.71)"/><path d="M524,585.73a.77.77,0,1,1,.77-.78A.78.78,0,0,1,524,585.73Zm.51,9.76h-1v-8.13h1Z" transform="translate(-3.63 -11.71)"/><path d="M527,588a2.1,2.1,0,0,1,1.6-.78c1.44,0,1.57,1.33,1.57,2.44v5.82h-1v-5.7c0-1-.06-1.72-.92-1.72-1.17,0-1.22,1.29-1.22,2.14v5.28h-1v-8.13h1Z" transform="translate(-3.63 -11.71)"/><path d="M535.66,595.49h-1v-.63h0a1.57,1.57,0,0,1-1.34.76c-1.3,0-1.94-.73-1.94-4.28,0-1.82.07-4.11,2-4.11a1.42,1.42,0,0,1,1.25.68h0v-.55h1Zm-2.08-7.42c-1.14,0-1.21,1.81-1.21,3.19,0,3.36.56,3.52,1.16,3.52,1,0,1.19-.94,1.19-3.49C534.72,589.53,534.59,588.07,533.58,588.07Z" transform="translate(-3.63 -11.71)"/><path d="M538.12,588.44h0c.22-.57.66-1.22,1.34-1.21v1.21l-.2,0c-1.06,0-1.17,1-1.17,2.33v4.74h-1v-8.13h1Z" transform="translate(-3.63 -11.71)"/><path d="M542.24,598.6h-1.08l.81-3.33L540,587.36h1.05l1.36,6.56h0c.14-.7.27-1.39.43-2.09l1.05-4.47H545Z" transform="translate(-3.63 -11.71)"/><line class="cls-18" x1="487.14" y1="564.75" x2="410.92" y2="564.75"/><path class="cls-3" d="M490.49,570.82a5.64,5.64,0,1,1-5.64,5.64A5.65,5.65,0,0,1,490.49,570.82Z" transform="translate(-3.63 -11.71)"/><path class="cls-3" d="M414.83,570.82a5.64,5.64,0,1,0,5.64,5.64A5.64,5.64,0,0,0,414.83,570.82Z" transform="translate(-3.63 -11.71)"/><path class="cls-24" d="M536.24,67.38c50,28.66,69,64.11,38.28,118.08" transform="translate(-3.63 -11.71)"/><polygon class="cls-8" points="540.89 71.83 535.25 57.41 550.41 54.29 515.44 46.67 540.89 71.83"/><polygon class="cls-7" points="537.99 66.96 518.77 48.47 533.66 56.55 537.99 66.96"/><polygon class="cls-8" points="569.86 155.57 572.21 170.87 586.89 165.97 560.46 190.1 569.86 155.57"/><polygon class="cls-7" points="569.79 161.23 562.43 186.87 571.27 172.41 569.79 161.23"/><path class="cls-8" d="M518,127l-.89-2.3c-.09-.24-.17-.5-.25-.78s-.14-.58-.19-.89c-.06.32-.12.62-.19.9s-.14.54-.21.77l-.77,2.3H512.9l2.61-5.72-2.38-5.59h2.37l.85,2.38a3.86,3.86,0,0,1,.15.52c.06.21.12.5.2.84.06-.29.12-.56.18-.79s.13-.42.19-.58l.84-2.37h2.33l-2.38,5.59,2.56,5.72Z" transform="translate(-3.63 -11.71)"/><path class="cls-8" d="M520.59,124.39v-2.46h4v2.46Z" transform="translate(-3.63 -11.71)"/><path class="cls-8" d="M532.17,126.83a3.23,3.23,0,0,1-.65.2,3,3,0,0,1-.67.07,4.43,4.43,0,0,1-3.51-1.57,6.12,6.12,0,0,1-1.35-4.12,6.59,6.59,0,0,1,1.32-4.28,4.25,4.25,0,0,1,3.45-1.63,4.32,4.32,0,0,1,.74.07,2.49,2.49,0,0,1,.67.21v2.11a3.43,3.43,0,0,0-.63-.19,2.52,2.52,0,0,0-.6-.07,2.18,2.18,0,0,0-1.84,1,4.52,4.52,0,0,0-.7,2.65,4.23,4.23,0,0,0,.72,2.57,2.23,2.23,0,0,0,1.87,1,3,3,0,0,0,.58-.07,4.69,4.69,0,0,0,.6-.2Z" transform="translate(-3.63 -11.71)"/><path class="cls-8" d="M537,127v-4.6a1.89,1.89,0,0,0-.15-.9.58.58,0,0,0-.53-.24.63.63,0,0,0-.58.29,1.83,1.83,0,0,0-.18.94V127h-2.1V115h2.1v5.33a3,3,0,0,1,.91-.75,2.13,2.13,0,0,1,1-.25,1.43,1.43,0,0,1,1.24.5,3.83,3.83,0,0,1,.35,2V127Z" transform="translate(-3.63 -11.71)"/><path class="cls-8" d="M546.16,127h-2v-1.12a2.84,2.84,0,0,1-.76.94,1.58,1.58,0,0,1-.95.32,1.82,1.82,0,0,1-1.66-1,5.89,5.89,0,0,1-.58-2.92,5.77,5.77,0,0,1,.59-2.87,1.84,1.84,0,0,1,1.66-1,1.46,1.46,0,0,1,.92.31,2.87,2.87,0,0,1,.78.93v-1.16h2Zm-2-3.92a3.74,3.74,0,0,0-.24-1.54.81.81,0,0,0-.76-.51.7.7,0,0,0-.66.49,4.26,4.26,0,0,0-.21,1.57,4.44,4.44,0,0,0,.23,1.63.74.74,0,0,0,1.42,0A4.52,4.52,0,0,0,544.19,123Z" transform="translate(-3.63 -11.71)"/><path class="cls-8" d="M551.24,127v-4.6a1.75,1.75,0,0,0-.16-.9.57.57,0,0,0-.52-.24.62.62,0,0,0-.58.29,1.83,1.83,0,0,0-.18.94V127h-2.1v-7.6h1.95v1.18a2.82,2.82,0,0,1,.93-1,2.26,2.26,0,0,1,1.16-.31,1.4,1.4,0,0,1,1.24.51,3.81,3.81,0,0,1,.35,2V127Z" transform="translate(-3.63 -11.71)"/><path class="cls-8" d="M558.4,119.36h2v7a5.71,5.71,0,0,1-.65,3.27,3.57,3.57,0,0,1-4.4.12,2.53,2.53,0,0,1-.73-1.94v-.11h1.77a1.17,1.17,0,0,0,.25.82,1,1,0,0,0,.75.28.91.91,0,0,0,.76-.29,1.64,1.64,0,0,0,.22-1V126a2.71,2.71,0,0,1-.78.8,1.48,1.48,0,0,1-.87.28,1.83,1.83,0,0,1-1.66-1,5.92,5.92,0,0,1-.58-2.89,5.73,5.73,0,0,1,.59-2.86,1.84,1.84,0,0,1,1.67-1,1.49,1.49,0,0,1,.91.31,2.45,2.45,0,0,1,.72.93Zm0,3.68a4,4,0,0,0-.22-1.58.73.73,0,0,0-.72-.48.69.69,0,0,0-.66.49,4.56,4.56,0,0,0-.2,1.58,4.29,4.29,0,0,0,.23,1.64.74.74,0,0,0,.69.54.72.72,0,0,0,.68-.5A5.11,5.11,0,0,0,558.4,123Z" transform="translate(-3.63 -11.71)"/><path class="cls-8" d="M563.64,123.72v.06a2.37,2.37,0,0,0,.3,1.31,1,1,0,0,0,.86.46.88.88,0,0,0,.61-.22,1.49,1.49,0,0,0,.4-.66h1.81a3.06,3.06,0,0,1-1,1.78,2.89,2.89,0,0,1-1.91.65,2.74,2.74,0,0,1-2.25-1.06,5.36,5.36,0,0,1,0-5.76,2.74,2.74,0,0,1,2.25-1.06,2.63,2.63,0,0,1,2.27,1,5.17,5.17,0,0,1,.77,3.09v.36Zm2.23-1.21a2.25,2.25,0,0,0-.29-1.22.94.94,0,0,0-.83-.4,1,1,0,0,0-.83.41,2.18,2.18,0,0,0-.28,1.22Z" transform="translate(-3.63 -11.71)"/><path class="cls-8" d="M523.33,146l1.1-11.31h2.91l.59,4.32c.08.65.16,1.28.22,1.88s.1,1.19.14,1.76c.09-1,.17-1.78.24-2.36s.11-1,.16-1.28l.72-4.32h2.88l1,11.31H531l-.24-5.25c0-.12,0-.31,0-.56-.07-1.37-.1-2.5-.1-3.37L529.12,146h-1.63l-1.39-9.25c0,.77-.05,1.87-.14,3.3,0,.33,0,.57-.05.73l-.35,5.22Z" transform="translate(-3.63 -11.71)"/><path class="cls-8" d="M540.26,142.18a4.42,4.42,0,0,1-.86,2.88,3,3,0,0,1-4.61,0,4.5,4.5,0,0,1-.85-2.89,4.41,4.41,0,0,1,.85-2.86,3,3,0,0,1,4.61,0A4.38,4.38,0,0,1,540.26,142.18Zm-3.16,2.12a1,1,0,0,0,.86-.56,4.13,4.13,0,0,0,0-3.14.94.94,0,0,0-1.72,0,3.35,3.35,0,0,0-.31,1.58,3.3,3.3,0,0,0,.31,1.57A.94.94,0,0,0,537.1,144.3Z" transform="translate(-3.63 -11.71)"/><path class="cls-8" d="M547,146h-2v-1.11a2.43,2.43,0,0,1-.72,1,1.59,1.59,0,0,1-1,.32,1.79,1.79,0,0,1-1.62-1,6,6,0,0,1-.58-2.92,5.77,5.77,0,0,1,.59-2.87,1.83,1.83,0,0,1,1.67-1,1.52,1.52,0,0,1,.89.28,2.61,2.61,0,0,1,.74.87V134h2Zm-2-3.92a4,4,0,0,0-.22-1.57A.75.75,0,0,0,544,140a.69.69,0,0,0-.66.49,4.63,4.63,0,0,0-.2,1.59,4.23,4.23,0,0,0,.23,1.63.74.74,0,0,0,.69.54.7.7,0,0,0,.68-.5A5.07,5.07,0,0,0,545,142.07Z" transform="translate(-3.63 -11.71)"/><path class="cls-8" d="M550.21,142.75v.07a2.36,2.36,0,0,0,.3,1.3,1,1,0,0,0,.86.46.88.88,0,0,0,.61-.22,1.51,1.51,0,0,0,.4-.65h1.81a3.09,3.09,0,0,1-1,1.78,2.88,2.88,0,0,1-1.91.64,2.71,2.71,0,0,1-2.25-1.06,5.34,5.34,0,0,1,0-5.75,2.72,2.72,0,0,1,2.25-1.07,2.63,2.63,0,0,1,2.27,1.05,5.21,5.21,0,0,1,.77,3.09v.36Zm2.23-1.2a2.27,2.27,0,0,0-.29-1.23,1,1,0,0,0-1.66,0,2.14,2.14,0,0,0-.28,1.21Z" transform="translate(-3.63 -11.71)"/><path class="cls-8" d="M555.41,146V134h2.1v12Z" transform="translate(-3.63 -11.71)"/></svg>